{"title":"Dr. DMAT (2014) Complete (Hardsubbed) BANKAI","uid":10448268,"size":2016836768,"categoryP":"video","categoryS":"tv_shows","magnet":"?xt=urn:btih:5fe3b5309df6fe43cdd6770d4a6fcb3364dc8bb9&amp;dn=Dr.+DMAT+%282014%29+Complete+%28Hardsubbed%29+BANKAI&amp;tr=udp%3A%2F%2Ftracker.openbittorrent.com%3A80&amp;tr=udp%3A%2F%2Fopen.demonii.com%3A1337&amp;tr=udp%3A%2F%2Ftracker.coppersurfer.tk%3A6969&amp;tr=udp%3A%2F%2Fexodus.desync.com%3A6969","seeders":1,"leechers":1,"uploader":"8ankai","files":11,"time":1403985794,"description":"Dr.DMAT (2014)\n &lt;a href=&quot;\nhttp://i.imgur.com/kFX7AT3.jpg&quot; rel=&quot;nofollow&quot; target=&quot;_NEW&quot;&gt;\nhttp://i.imgur.com/kFX7AT3.jpg&lt;/a&gt;\n\nINFO:\nTitle (romaji) : Dr. DMAT\nFormat : Renzoku\nGenre : Suspense, Medical\nEpisodes : 11\nBroadcast network: TBS\nTheme song: Hibiki by Kanjani8\nEncoder : BANKAI  \nSubtitle : ENGLISH HARDSUBBED\n\n* English Subtitles by Niji-bunny\n* Raws by Doramax264\n\n\nCAST:\nOhkura Tadayoshi as Yakumo Hibiki\nKato Ai as Yoshioka Rin\nTakimoto Miori as Yakumo Haruko\nIchikawa Mikako as Isesaki Kumi\nAso Yumi as Hasegawa Kumiko\nSato Jiro as Kozone Tatsuya\nHosshan as Murakami Kazushi\nMatsuo Satoru as Hanada Takichiro\nTakizawa Saori as Mizuno Sachiko\nTakaki Yuya as Komatsu Kenji\nHidari Tonpei as Yakumo Raizou\nIshiguro Ken as Sakuraba Shusaku\nKunimura Jun as Isesaki Katsuichi\n\n\nSYNOPSIS:\nDMAT, the acronym for the &quot;Disaster Medical Assistance Team&quot;, was first established in 2004. For the past 10 years, the team has been providing on-site emergency assistance at disaster-hit areas. Yakumo Hibiki was an surgeon at the Arisukawa General Hospital's Emergency Unit, but due to a mistake involving his sister Haruko, he has since been transferred to the internal medicine unit. One day, the hospital Director, Dr. Isesaki Katsuichi, requests for Hibiki to move to DMAT. His childhood friend, Nurse Yoshioka Rin, encourages him to take up the role, but upon joining the team, Hibiki finds his new colleagues aloof and a little eccentric. His first assignment is to a pile-up accident in a road tunnel, and he finds himself working against time to provide medical treatment to those who require immediate attention.\n\n\nVIDEO INFO:\nFormat : MPEG-4 \nFormat profile : Base Media \nCodec ID : isom \nFile size : 168 MiB \nDuration : 46mn 45s \nOverall bit rate mode : Variable \nOverall bit rate : 502 Kbps \n\nVideo \nFormat : AVC \nFormat/Info : Advanced Video Codec \nFormat profile : &lt;a class=&quot;__cf_email__&quot; href=&quot;/cdn-cgi/l/email-protection&quot; data-cfemail=&quot;ce86a7a9a68e82fde0fe&quot;&gt;[email&amp;#160;protected]&lt;/a&gt;&lt;script cf-hash='f9e31' type=&quot;text/javascript&quot;&gt;\n/* &lt;![CDATA[ */!function(){try{var t=&quot;currentScript&quot;in document?document.currentScript:function(){for(var t=document.getElementsByTagName(&quot;script&quot;),e=t.length;e--;)if(t[e].getAttribute(&quot;cf-hash&quot;))return t[e]}();if(t&amp;&amp;t.previousSibling){var e,r,n,i,c=t.previousSibling,a=c.getAttribute(&quot;data-cfemail&quot;);if(a){for(e=&quot;&quot;,r=parseInt(a.substr(0,2),16),n=2;a.length-n;n+=2)i=parseInt(a.substr(n,2),16)^r,e+=String.fromCharCode(i);e=document.createTextNode(e),c.parentNode.replaceChild(e,c)}}}catch(u){}}();/* ]]&gt; */&lt;/script&gt; \nFormat settings, CABAC : Yes \nFormat settings, ReFrames : 4 frames \nCodec ID : avc1 \nCodec ID/Info : Advanced Video Coding \nDuration : 46mn 44s \nBit rate : 306 Kbps \nMaximum bit rate : 1 453 Kbps \nWidth : 704 pixels \nHeight : 400 pixels \nDisplay aspect ratio : 16:9 \nFrame rate mode : Constant \nFrame rate : 29.970 fps \nColor space : YUV \nChroma subsampling : 4:2:0 \nBit depth : 8 bits \nScan type : Progressive \nBits/(Pixel*Frame) : 0.036 \nStream size : 102 MiB (61%) \n\nAudio \nFormat : AAC \nFormat/Info : Advanced Audio Codec \nFormat profile : LC \nCodec ID : 40 \nDuration : 46mn 45s \nBit rate mode : Variable \nBit rate : 192 Kbps \nMaximum bit rate : 231 Kbps \nChannel(s) : 2 channels \nChannel positions : Front: L R \nSampling rate : 44.1 KHz \nCompression mode : Lossy \nStream size : 64.1 MiB (38%) \n\n\nSCREENSHOT: &lt;a href=&quot;\nhttp://i.imgur.com/ho5919Q.jpg&quot; rel=&quot;nofollow&quot; target=&quot;_NEW&quot;&gt;\nhttp://i.imgur.com/ho5919Q.jpg&lt;/a&gt; &lt;a href=&quot;\nhttp://i.imgur.com/fxtph2w.jpg&quot; rel=&quot;nofollow&quot; target=&quot;_NEW&quot;&gt;\nhttp://i.imgur.com/fxtph2w.jpg&lt;/a&gt; &lt;a href=&quot;\nhttp://i.imgur.com/7n50DyO.jpg&quot; rel=&quot;nofollow&quot; target=&quot;_NEW&quot;&gt;\nhttp://i.imgur.com/7n50DyO.jpg&lt;/a&gt;\n\nEnjoy &amp; Please Seed!!","torrent":{"xt":"urn:btih:5fe3b5309df6fe43cdd6770d4a6fcb3364dc8bb9","amp;dn":"Dr.+DMAT+%282014%29+Complete+%28Hardsubbed%29+BANKAI","amp;tr":["udp%3A%2F%2Ftracker.openbittorrent.com%3A80","udp%3A%2F%2Fopen.demonii.com%3A1337","udp%3A%2F%2Ftracker.coppersurfer.tk%3A6969","udp%3A%2F%2Fexodus.desync.com%3A6969"],"infoHash":"5fe3b5309df6fe43cdd6770d4a6fcb3364dc8bb9","infoHashBuffer":{"type":"Buffer","data":[95,227,181,48,157,246,254,67,205,214,119,13,74,111,203,51,100,220,139,185]},"announce":[],"urlList":[]}}